<?xml version="1.0" encoding="UTF-8"?>
<svg xmlns="http://www.w3.org/2000/svg" xmlns:xlink="http://www.w3.org/1999/xlink" width="250px" height="50px" viewBox="0 0 248 50" version="1.1">
<g id="surface1">
<path style=" stroke:none;fill-rule:nonzero;fill:rgb(0%,0%,0%);fill-opacity:1;" d="M 165.078125 4.167969 C 164.148438 5.097656 164.277344 6.21875 165.460938 7.210938 C 166.261719 7.882812 166.675781 8.011719 167.445312 7.882812 C 168.980469 7.5625 169.332031 7.019531 169.078125 5.351562 C 168.882812 4.070312 168.757812 3.878906 167.894531 3.71875 C 166.292969 3.398438 165.75 3.492188 165.078125 4.167969 Z M 165.078125 4.167969 "/>
<path style=" stroke:none;fill-rule:nonzero;fill:rgb(0%,0%,0%);fill-opacity:1;" d="M 213.226562 5.929688 C 211.753906 6.472656 209.546875 8.171875 209.546875 8.75 C 209.546875 8.972656 210.1875 9.488281 210.953125 9.902344 L 212.359375 10.671875 L 213.226562 10 C 215.558594 8.140625 219.785156 9.039062 219.785156 11.378906 C 219.785156 12.53125 218.917969 14.070312 217.574219 15.351562 C 216.9375 15.929688 215.082031 17.722656 213.417969 19.359375 C 210.601562 22.050781 210.378906 22.371094 210.410156 23.492188 C 210.410156 24.167969 210.570312 24.871094 210.699219 25 C 210.890625 25.191406 213.800781 25.222656 217.480469 25.097656 C 223.300781 24.902344 223.941406 24.839844 223.941406 24.359375 C 223.941406 24.039062 224.039062 23.332031 224.132812 22.789062 L 224.359375 21.792969 L 220.457031 21.792969 C 218.34375 21.792969 216.585938 21.699219 216.585938 21.539062 C 216.585938 21.410156 217.800781 20.03125 219.304688 18.460938 C 222.757812 14.839844 223.429688 13.492188 223.207031 10.671875 C 223.015625 8.238281 222.40625 7.242188 220.550781 6.28125 C 218.953125 5.417969 215.082031 5.257812 213.226562 5.929688 Z M 213.226562 5.929688 "/>
<path style=" stroke:none;fill-rule:nonzero;fill:rgb(0%,0%,0%);fill-opacity:1;" d="M 234.949219 6.828125 C 234.433594 7.402344 233.15625 9.070312 232.101562 10.511719 C 231.042969 11.988281 229.347656 14.292969 228.324219 15.640625 C 226.628906 17.882812 226.46875 18.171875 226.566406 19.519531 L 226.660156 20.992188 L 231.460938 20.992188 C 234.117188 20.992188 236.417969 21.058594 236.644531 21.089844 C 236.867188 21.121094 237.058594 21.921875 237.121094 23.140625 L 237.21875 25.160156 L 240.738281 25.160156 L 240.769531 23.269531 C 240.832031 21.1875 241.121094 20.832031 242.753906 20.832031 C 243.746094 20.832031 243.777344 20.800781 243.777344 19.421875 C 243.777344 17.917969 243.488281 17.628906 241.984375 17.628906 C 241.121094 17.628906 240.480469 16.472656 240.640625 15.257812 C 240.769531 14.167969 240.289062 13.78125 238.785156 13.78125 C 237.441406 13.78125 237.378906 13.8125 237.378906 14.710938 C 237.378906 15.222656 237.28125 16.089844 237.1875 16.632812 L 236.996094 17.628906 L 234.46875 17.628906 C 231.589844 17.628906 231.429688 17.4375 232.835938 15.609375 C 233.316406 14.96875 234.339844 13.398438 235.140625 12.148438 C 235.9375 10.867188 237.058594 9.101562 237.632812 8.238281 C 239.042969 6.089844 238.976562 5.769531 237.25 5.769531 C 236.066406 5.769531 235.714844 5.929688 234.949219 6.828125 Z M 234.949219 6.828125 "/>
<path style=" stroke:none;fill-rule:nonzero;fill:rgb(0%,0%,0%);fill-opacity:1;" d="M 89.578125 9.9375 C 85.128906 10.480469 81.515625 12.179688 78.699219 15.03125 C 74.636719 19.199219 73.003906 25.222656 74.378906 31.027344 C 76.171875 38.652344 82.476562 43.652344 90.855469 44.132812 C 102.949219 44.839844 112.066406 34.777344 109.570312 23.527344 C 108.707031 19.617188 107.078125 16.792969 104.070312 14.132812 C 101.925781 12.210938 97.925781 10.417969 95.144531 10.097656 C 94.085938 10 92.902344 9.839844 92.457031 9.808594 C 92.007812 9.742188 90.730469 9.808594 89.578125 9.9375 Z M 96.167969 17.050781 C 98.40625 17.851562 100.519531 19.777344 101.445312 21.859375 C 102.085938 23.300781 102.214844 24.070312 102.214844 26.921875 C 102.214844 29.777344 102.085938 30.542969 101.445312 31.957031 C 100.550781 33.972656 98.757812 35.671875 96.328125 36.828125 C 94.824219 37.53125 94.085938 37.660156 91.816406 37.660156 C 89.542969 37.660156 88.808594 37.53125 87.335938 36.828125 C 84.84375 35.671875 83.691406 34.550781 82.570312 32.371094 C 79.820312 26.828125 81.835938 19.742188 86.921875 17.277344 C 89.542969 15.992188 93.128906 15.898438 96.167969 17.050781 Z M 96.167969 17.050781 "/>
<path style=" stroke:none;fill-rule:nonzero;fill:rgb(0%,0%,0%);fill-opacity:1;" d="M 115.714844 14.007812 C 115.425781 19.132812 115.425781 22.5625 115.683594 24.101562 L 115.90625 25.320312 L 119.875 25.320312 L 119.875 21.21875 C 119.839844 17.980469 119.96875 16.890625 120.417969 15.960938 C 121.023438 14.710938 122.527344 13.78125 123.9375 13.78125 C 124.671875 13.78125 124.769531 13.652344 124.769531 12.5625 C 124.769531 11.921875 124.863281 11.027344 124.992188 10.609375 C 125.183594 9.871094 125.152344 9.839844 123.777344 10.0625 C 123.007812 10.191406 121.824219 10.640625 121.183594 11.058594 C 120.511719 11.507812 119.90625 11.859375 119.839844 11.859375 C 119.746094 11.859375 119.648438 11.472656 119.585938 10.960938 C 119.488281 10.160156 119.394531 10.097656 117.699219 10 L 115.90625 9.902344 Z M 115.714844 14.007812 "/>
<path style=" stroke:none;fill-rule:nonzero;fill:rgb(0%,0%,0%);fill-opacity:1;" d="M 132.285156 10.222656 C 126.878906 11.632812 124.542969 18.332031 128 22.53125 C 128.511719 23.171875 129.757812 24.070312 130.75 24.582031 C 133.851562 26.089844 138.011719 25.640625 140.605469 23.558594 C 141.210938 23.078125 141.210938 23.042969 140.09375 21.921875 L 138.972656 20.800781 L 137.53125 21.441406 C 136.765625 21.792969 135.675781 22.117188 135.132812 22.117188 C 133.757812 22.117188 131.964844 21.3125 131.359375 20.449219 C 130.300781 18.972656 130.460938 18.910156 136.414062 18.910156 C 142.777344 18.910156 142.621094 18.972656 142.042969 16.152344 C 141.339844 12.757812 138.523438 10.289062 135.101562 10.0625 C 134.078125 10.03125 132.828125 10.0625 132.285156 10.222656 Z M 135.964844 13.652344 C 137.050781 14.101562 138.203125 15.382812 138.203125 16.1875 C 138.203125 16.28125 136.539062 16.347656 134.523438 16.347656 C 131.167969 16.347656 130.847656 16.28125 130.847656 15.769531 C 130.847656 14.777344 132.894531 13.238281 134.269531 13.171875 C 134.492188 13.140625 135.261719 13.367188 135.964844 13.652344 Z M 135.964844 13.652344 "/>
<path style=" stroke:none;fill-rule:nonzero;fill:rgb(0%,0%,0%);fill-opacity:1;" d="M 148.570312 10.609375 C 145.785156 11.667969 144.28125 13.972656 144.28125 17.148438 C 144.28125 19.582031 145.082031 21.3125 146.808594 22.820312 C 149.144531 24.839844 152.570312 25.191406 155.0625 23.71875 C 156.441406 22.917969 156.441406 22.917969 156.441406 23.878906 C 156.441406 25.257812 155.511719 26.601562 154.265625 27.148438 C 152.792969 27.757812 149.65625 27.46875 147.960938 26.570312 C 147.320312 26.21875 146.746094 25.960938 146.714844 26.027344 C 146.136719 26.828125 145.242188 28.527344 145.242188 28.78125 C 145.242188 29.390625 147.578125 30.382812 149.847656 30.800781 C 154.007812 31.507812 157.910156 30.320312 159.542969 27.851562 C 160.535156 26.347656 160.503906 26.730469 160.664062 15.449219 L 160.757812 10.257812 L 158.773438 10.257812 C 156.855469 10.257812 156.757812 10.289062 156.757812 11.058594 C 156.757812 11.890625 156.3125 12.117188 155.929688 11.507812 C 155.511719 10.832031 153.082031 9.9375 151.640625 9.96875 C 150.839844 9.96875 149.464844 10.257812 148.570312 10.609375 Z M 154.328125 13.910156 C 154.902344 14.167969 155.640625 14.679688 155.929688 15.097656 C 156.917969 16.539062 156.3125 19.777344 154.9375 20.351562 C 153.273438 21.027344 152.375 21.121094 151.320312 20.800781 C 149.785156 20.289062 149.144531 19.648438 148.699219 18.207031 C 148.410156 17.179688 148.441406 16.792969 148.921875 15.738281 C 149.816406 13.6875 152.023438 12.949219 154.328125 13.910156 Z M 154.328125 13.910156 "/>
<path style=" stroke:none;fill-rule:nonzero;fill:rgb(0%,0%,0%);fill-opacity:1;" d="M 178.195312 10.222656 C 175.828125 10.992188 173.746094 12.851562 172.882812 14.9375 C 172.242188 16.441406 172.339844 19.457031 173.042969 20.992188 C 173.84375 22.789062 175.921875 24.550781 177.90625 25.128906 C 180.015625 25.769531 180.722656 25.769531 182.832031 25.160156 C 184.785156 24.582031 187.503906 22.179688 188.269531 20.289062 C 189.296875 17.882812 188.429688 14.039062 186.480469 12.277344 C 184.496094 10.480469 180.464844 9.488281 178.195312 10.222656 Z M 182.351562 13.941406 C 185.105469 15.382812 184.976562 20.480469 182.160156 21.667969 C 180.6875 22.277344 179.027344 21.957031 177.777344 20.832031 C 176.945312 20.097656 176.785156 19.679688 176.660156 18.078125 C 176.5625 16.472656 176.660156 15.992188 177.296875 15.0625 C 178.355469 13.492188 180.5625 13.011719 182.351562 13.941406 Z M 182.351562 13.941406 "/>
<path style=" stroke:none;fill-rule:nonzero;fill:rgb(0%,0%,0%);fill-opacity:1;" d="M 198.539062 10.417969 C 197.867188 10.640625 197.164062 10.992188 196.972656 11.1875 C 196.429688 11.730469 196.109375 11.601562 196.109375 10.898438 C 196.109375 10.320312 195.886719 10.257812 194.03125 10.257812 L 191.949219 10.257812 L 191.949219 25.320312 L 196.011719 25.320312 L 195.886719 21.378906 C 195.726562 15.609375 196.652344 13.78125 199.757812 13.78125 C 202.316406 13.78125 202.921875 14.871094 202.890625 19.390625 C 202.890625 21.152344 202.957031 23.207031 203.019531 23.941406 L 203.179688 25.320312 L 207.371094 25.320312 L 207.082031 23.941406 C 206.953125 23.207031 206.859375 20.640625 206.890625 18.269531 C 206.988281 14.007812 206.953125 13.910156 206.089844 12.691406 C 204.425781 10.289062 201.421875 9.390625 198.539062 10.417969 Z M 198.539062 10.417969 "/>
<path style=" stroke:none;fill-rule:nonzero;fill:rgb(0%,0%,0%);fill-opacity:1;" d="M 4.480469 26.921875 L 4.480469 43.621094 L 8.09375 43.527344 L 11.675781 43.429688 L 11.835938 38.941406 L 11.996094 34.457031 L 17.59375 34.261719 C 24.347656 34.039062 26.234375 33.492188 29.175781 30.832031 C 35.0625 25.511719 33.75 15.960938 26.585938 12.050781 C 23.769531 10.542969 21.722656 10.257812 12.734375 10.257812 L 4.480469 10.257812 Z M 22.488281 17.4375 C 23.898438 18.109375 24.410156 18.558594 24.921875 19.679688 C 26.585938 23.109375 24.859375 26.957031 21.273438 27.851562 C 20.507812 28.042969 18.074219 28.207031 15.867188 28.207031 L 11.835938 28.207031 L 11.835938 16.25 L 16.285156 16.410156 C 20.28125 16.539062 20.859375 16.632812 22.488281 17.4375 Z M 22.488281 17.4375 "/>
<path style=" stroke:none;fill-rule:nonzero;fill:rgb(0%,0%,0%);fill-opacity:1;" d="M 39.925781 10.832031 C 39.828125 11.121094 39.828125 15.191406 39.894531 19.871094 C 39.957031 24.550781 39.988281 31.792969 39.988281 35.960938 L 39.988281 43.589844 L 46.996094 43.589844 L 47.09375 39.007812 L 47.1875 34.457031 L 50.929688 34.359375 L 54.640625 34.261719 L 56.273438 36.601562 C 57.136719 37.882812 58.640625 40 59.535156 41.28125 L 61.230469 43.589844 L 64.847656 43.589844 C 66.832031 43.589844 68.460938 43.492188 68.460938 43.398438 C 68.460938 43.140625 66.03125 39.457031 63.597656 35.992188 C 62.574219 34.550781 61.742188 33.269531 61.742188 33.109375 C 61.777344 32.980469 62.574219 32.339844 63.535156 31.730469 C 68.269531 28.75 69.804688 22.117188 67.023438 16.667969 C 66.285156 15.191406 63.792969 12.789062 62.191406 12.019531 C 59.058594 10.511719 56.976562 10.257812 48.277344 10.257812 C 40.695312 10.257812 40.054688 10.289062 39.925781 10.832031 Z M 55.503906 16.699219 C 57.9375 17.148438 58.960938 17.691406 60.015625 19.070312 C 60.71875 20 60.878906 20.542969 60.878906 22.210938 C 60.914062 23.941406 60.753906 24.457031 59.953125 25.671875 C 58.511719 27.789062 57.007812 28.238281 51.539062 28.140625 L 47.1875 28.042969 L 47.09375 22.46875 C 47.027344 18.207031 47.125 16.828125 47.410156 16.601562 C 48.019531 16.25 53.332031 16.28125 55.503906 16.699219 Z M 55.503906 16.699219 "/>
<path style=" stroke:none;fill-rule:nonzero;fill:rgb(0%,0%,0%);fill-opacity:1;" d="M 165.078125 17.789062 L 165.078125 25.320312 L 169.171875 25.320312 L 169.140625 17.789062 L 169.078125 10.257812 L 165.078125 10.257812 Z M 165.078125 17.789062 "/>
<path style=" stroke:none;fill-rule:nonzero;fill:rgb(0%,0%,0%);fill-opacity:1;" d="M 116.003906 33.300781 C 115.777344 33.652344 115.714844 43.269531 115.9375 43.492188 C 116.035156 43.589844 116.320312 43.589844 116.609375 43.492188 C 116.992188 43.332031 117.089844 42.5625 117.089844 38.78125 L 117.089844 34.292969 L 123.457031 34.292969 L 123.550781 38.847656 C 123.648438 42.917969 123.710938 43.429688 124.222656 43.527344 C 124.734375 43.621094 124.769531 43.207031 124.769531 38.527344 C 124.769531 34.132812 124.703125 33.367188 124.257812 33.207031 C 123.457031 32.917969 116.195312 32.980469 116.003906 33.300781 Z M 116.003906 33.300781 "/>
<path style=" stroke:none;fill-rule:nonzero;fill:rgb(0%,0%,0%);fill-opacity:1;" d="M 131.644531 33.238281 C 130.527344 33.527344 128.863281 34.96875 128.414062 36.089844 C 127.808594 37.5625 127.871094 39.710938 128.574219 41.027344 C 129.34375 42.5 131.261719 43.589844 133.023438 43.589844 C 134.523438 43.589844 136.574219 42.789062 136.828125 42.117188 C 137.148438 41.28125 136.574219 41.089844 135.421875 41.699219 C 133.949219 42.4375 132.734375 42.46875 131.292969 41.792969 C 130.269531 41.3125 129.246094 39.96875 129.246094 39.101562 C 129.246094 38.910156 130.71875 38.78125 133.375 38.78125 C 137.917969 38.78125 138.109375 38.71875 137.566406 36.828125 C 137.085938 35.222656 136.414062 34.421875 134.910156 33.6875 C 133.535156 33.011719 132.894531 32.949219 131.644531 33.238281 Z M 134.71875 34.839844 C 135.644531 35.382812 136.699219 37.082031 136.414062 37.5625 C 136.15625 37.949219 129.246094 37.882812 129.246094 37.5 C 129.246094 36.730469 130.269531 35.257812 131.101562 34.808594 C 132.253906 34.167969 133.597656 34.167969 134.71875 34.839844 Z M 134.71875 34.839844 "/>
<path style=" stroke:none;fill-rule:nonzero;fill:rgb(0%,0%,0%);fill-opacity:1;" d="M 141.277344 33.238281 C 141.179688 33.332031 141.082031 36.507812 141.082031 40.289062 C 141.082031 45.929688 141.148438 47.117188 141.53125 47.117188 C 141.851562 47.117188 142.042969 46.410156 142.234375 44.519531 L 142.523438 41.921875 L 143.484375 42.691406 C 144.761719 43.6875 147.640625 43.75 148.953125 42.757812 C 150.679688 41.472656 151.160156 40.511719 151.160156 38.332031 C 151.160156 36.601562 151 36.121094 150.234375 35.097656 C 148.570312 32.949219 145.660156 32.4375 143.609375 33.941406 C 142.492188 34.777344 142.042969 34.808594 142.042969 34.007812 C 142.042969 33.332031 141.628906 32.917969 141.277344 33.238281 Z M 147.898438 34.679688 C 150.265625 35.929688 150.554688 39.679688 148.378906 41.507812 C 147.480469 42.277344 147.128906 42.371094 145.753906 42.210938 C 143.609375 42.019531 142.363281 40.707031 142.363281 38.621094 C 142.363281 37.851562 142.492188 36.859375 142.683594 36.410156 C 143.324219 34.710938 146.203125 33.75 147.898438 34.679688 Z M 147.898438 34.679688 "/>
<path style=" stroke:none;fill-rule:nonzero;fill:rgb(0%,0%,0%);fill-opacity:1;" d="M 156.917969 33.429688 C 154.617188 34.328125 153.558594 35.867188 153.558594 38.238281 C 153.558594 42.117188 156.757812 44.488281 160.375 43.300781 C 161.8125 42.820312 162.773438 41.792969 162.261719 41.28125 C 161.972656 40.992188 161.75 41.058594 161.269531 41.472656 C 160.46875 42.179688 158.199219 42.46875 157.015625 42.019531 C 155.128906 41.3125 154.265625 38.269531 155.320312 36.21875 C 156.28125 34.359375 159.125 33.6875 160.726562 34.96875 C 161.589844 35.640625 162.679688 35.578125 162.453125 34.839844 C 162.261719 34.261719 159.640625 33.011719 158.679688 33.042969 C 158.230469 33.042969 157.464844 33.238281 156.917969 33.429688 Z M 156.917969 33.429688 "/>
<path style=" stroke:none;fill-rule:nonzero;fill:rgb(0%,0%,0%);fill-opacity:1;" d="M 165.398438 38.332031 C 165.398438 43.207031 165.429688 43.621094 165.972656 43.527344 C 166.453125 43.429688 166.515625 42.917969 166.613281 38.847656 L 166.707031 34.292969 L 173.074219 34.292969 L 173.140625 36.28125 C 173.171875 37.402344 173.203125 39.457031 173.203125 40.867188 C 173.234375 42.949219 173.332031 43.429688 173.746094 43.527344 C 174.066406 43.589844 174.355469 43.332031 174.484375 42.882812 C 174.804688 41.667969 174.707031 34.292969 174.355469 33.621094 C 174.035156 33.078125 173.652344 33.011719 169.714844 33.011719 L 165.398438 33.011719 Z M 165.398438 38.332031 "/>
<path style=" stroke:none;fill-rule:nonzero;fill:rgb(0%,0%,0%);fill-opacity:1;" d="M 180.59375 33.652344 C 178.707031 34.582031 177.875 36.027344 177.875 38.269531 C 177.875 39.261719 178.097656 40.511719 178.355469 41.027344 C 179.664062 43.558594 183.730469 44.390625 186 42.597656 C 186.640625 42.082031 186.769531 41.828125 186.511719 41.507812 C 186.257812 41.1875 185.9375 41.21875 184.976562 41.730469 C 182.671875 42.949219 179.699219 41.828125 178.992188 39.488281 L 178.800781 38.78125 L 183.089844 38.78125 C 185.425781 38.78125 187.441406 38.71875 187.535156 38.589844 C 187.855469 38.300781 187.214844 36.152344 186.609375 35.289062 C 185.902344 34.359375 183.503906 33.011719 182.511719 33.011719 C 182.160156 33.011719 181.296875 33.300781 180.59375 33.652344 Z M 185.039062 35.382812 C 185.679688 35.960938 186.191406 36.761719 186.191406 37.148438 C 186.191406 37.789062 186.0625 37.820312 182.671875 37.820312 C 179.1875 37.820312 179.152344 37.820312 179.152344 37.050781 C 179.152344 36.570312 179.570312 35.898438 180.273438 35.289062 C 181.875 33.878906 183.503906 33.910156 185.039062 35.382812 Z M 185.039062 35.382812 "/>
<path style=" stroke:none;fill-rule:nonzero;fill:rgb(0%,0%,0%);fill-opacity:1;" d="M 198.347656 33.269531 C 198.09375 33.332031 197.101562 34.390625 196.140625 35.609375 C 194.511719 37.722656 194.316406 37.851562 193.261719 37.757812 L 192.109375 37.660156 L 192.015625 35.480469 C 191.917969 33.589844 191.855469 33.332031 191.277344 33.332031 C 190.671875 33.332031 190.671875 33.527344 190.734375 38.367188 C 190.832031 42.628906 190.894531 43.429688 191.3125 43.429688 C 191.695312 43.429688 191.824219 42.917969 191.886719 41.089844 L 191.984375 38.78125 L 193.230469 38.78125 C 194.382812 38.78125 194.605469 38.941406 196.429688 41.1875 C 197.644531 42.660156 198.636719 43.589844 199.019531 43.589844 C 199.339844 43.589844 199.628906 43.527344 199.628906 43.460938 C 199.628906 43.332031 197.421875 40.578125 195.886719 38.75 C 195.5 38.269531 195.628906 37.980469 196.941406 36.347656 C 197.773438 35.289062 198.636719 34.230469 198.894531 33.910156 C 199.371094 33.367188 199.117188 33.042969 198.347656 33.269531 Z M 198.347656 33.269531 "/>
<path style=" stroke:none;fill-rule:nonzero;fill:rgb(0%,0%,0%);fill-opacity:1;" d="M 200.171875 33.207031 C 200.042969 33.332031 199.949219 33.621094 199.949219 33.878906 C 199.949219 34.167969 200.492188 34.292969 201.867188 34.292969 L 203.753906 34.292969 L 203.851562 38.847656 C 203.949219 42.660156 204.011719 43.429688 204.425781 43.429688 C 204.8125 43.429688 204.9375 42.660156 205.066406 38.941406 L 205.226562 34.457031 L 207.082031 34.359375 C 208.648438 34.261719 208.9375 34.167969 208.84375 33.71875 C 208.746094 33.238281 208.203125 33.171875 204.554688 33.078125 C 202.285156 33.042969 200.300781 33.109375 200.171875 33.207031 Z M 200.171875 33.207031 "/>
<path style=" stroke:none;fill-rule:nonzero;fill:rgb(0%,0%,0%);fill-opacity:1;" d="M 219.078125 33.71875 C 218.632812 34.132812 217.382812 35.542969 216.296875 36.859375 C 215.207031 38.171875 213.929688 39.679688 213.449219 40.191406 L 212.585938 41.152344 L 212.488281 37.242188 C 212.425781 33.589844 212.359375 33.332031 211.753906 33.332031 C 211.144531 33.332031 211.144531 33.527344 211.210938 38.367188 C 211.273438 41.859375 211.433594 43.429688 211.6875 43.492188 C 211.882812 43.558594 213.609375 41.792969 215.527344 39.550781 L 218.984375 35.480469 L 219.078125 39.550781 C 219.144531 43.207031 219.207031 43.621094 219.71875 43.527344 C 220.199219 43.429688 220.261719 42.851562 220.359375 38.492188 C 220.390625 35.769531 220.328125 33.429688 220.167969 33.269531 C 219.976562 33.078125 219.527344 33.269531 219.078125 33.71875 Z M 219.078125 33.71875 "/>
<path style=" stroke:none;fill-rule:nonzero;fill:rgb(0%,0%,0%);fill-opacity:1;" d="M 224.996094 33.238281 C 224.679688 33.332031 224.582031 34.679688 224.582031 38.367188 L 224.582031 43.332031 L 228.132812 43.207031 C 231.554688 43.109375 231.714844 43.078125 232.453125 42.210938 C 233.476562 40.992188 233.445312 39.871094 232.324219 38.8125 C 231.394531 37.980469 231.394531 37.980469 232.035156 37.46875 C 232.898438 36.792969 232.898438 35.097656 232.035156 34.230469 C 231.078125 33.269531 226.46875 32.628906 224.996094 33.238281 Z M 230.980469 34.871094 C 231.554688 35.351562 231.683594 35.671875 231.492188 36.347656 C 231.238281 37.4375 230.210938 37.820312 227.75 37.820312 L 225.863281 37.820312 L 225.863281 34.292969 L 228.070312 34.292969 C 229.734375 34.292969 230.4375 34.457031 230.980469 34.871094 Z M 231.429688 39.488281 C 232.738281 41.378906 231.75 42.308594 228.390625 42.308594 L 225.863281 42.308594 L 225.863281 38.78125 L 228.390625 38.78125 C 230.660156 38.78125 231.011719 38.847656 231.429688 39.488281 Z M 231.429688 39.488281 "/>
<path style=" stroke:none;fill-rule:nonzero;fill:rgb(0%,0%,0%);fill-opacity:1;" d="M 237.890625 33.429688 C 236.644531 33.8125 235.746094 34.710938 236.195312 35.128906 C 236.324219 35.257812 236.996094 35.097656 237.699219 34.777344 C 240.195312 33.652344 242.816406 34.710938 242.816406 36.890625 L 242.816406 37.820312 L 240.417969 37.820312 C 236.835938 37.820312 235.777344 38.527344 235.777344 40.800781 C 235.777344 42.082031 236.003906 42.402344 237.28125 43.078125 C 238.625 43.75 239.777344 43.71875 241.441406 42.949219 C 242.722656 42.371094 242.816406 42.371094 243.105469 42.882812 C 243.648438 43.878906 243.9375 42.949219 244.03125 39.488281 C 244.160156 36.730469 244.066406 35.898438 243.617188 35.0625 C 242.722656 33.398438 240.226562 32.691406 237.890625 33.429688 Z M 242.753906 39.648438 C 243.007812 42.371094 238.148438 43.6875 236.996094 41.21875 C 236.707031 40.578125 236.738281 40.257812 237.15625 39.617188 C 237.699219 38.78125 238.339844 38.621094 241.058594 38.621094 C 242.625 38.621094 242.65625 38.652344 242.753906 39.648438 Z M 242.753906 39.648438 "/>
</g>
</svg>
